<svg width="121" height="25" viewBox="0 0 121 25" fill="none" xmlns="http://www.w3.org/2000/svg">
<rect y="1" width="24" height="24" rx="2" fill="#2D3748"/>
<path d="M2 12.8108L9.5122 20L24 1" stroke="white" stroke-width="2" stroke-linecap="round" stroke-linejoin="round"/>
<path d="M45.608 5.02V6.064H39.644V22H38.42V6.064H32.42V5.02H45.608ZM49.9529 9.868C50.8089 9.868 51.5729 10.016 52.2449 10.312C52.9249 10.6 53.4969 11.012 53.9609 11.548C54.4249 12.084 54.7769 12.732 55.0169 13.492C55.2649 14.244 55.3889 15.088 55.3889 16.024C55.3889 16.96 55.2649 17.804 55.0169 18.556C54.7769 19.308 54.4249 19.952 53.9609 20.488C53.4969 21.024 52.9249 21.436 52.2449 21.724C51.5729 22.012 50.8089 22.156 49.9529 22.156C49.0969 22.156 48.3289 22.012 47.6489 21.724C46.9769 21.436 46.4049 21.024 45.9329 20.488C45.4689 19.952 45.1129 19.308 44.8649 18.556C44.6249 17.804 44.5049 16.96 44.5049 16.024C44.5049 15.088 44.6249 14.244 44.8649 13.492C45.1129 12.732 45.4689 12.084 45.9329 11.548C46.4049 11.012 46.9769 10.6 47.6489 10.312C48.3289 10.016 49.0969 9.868 49.9529 9.868ZM49.9529 21.256C50.6649 21.256 51.2849 21.136 51.8129 20.896C52.3489 20.648 52.7929 20.296 53.1449 19.84C53.5049 19.384 53.7729 18.836 53.9489 18.196C54.1249 17.548 54.2129 16.824 54.2129 16.024C54.2129 15.232 54.1249 14.512 53.9489 13.864C53.7729 13.216 53.5049 12.664 53.1449 12.208C52.7929 11.744 52.3489 11.388 51.8129 11.14C51.2849 10.892 50.6649 10.768 49.9529 10.768C49.2409 10.768 48.6169 10.892 48.0809 11.14C47.5529 11.388 47.1089 11.744 46.7489 12.208C46.3969 12.664 46.1289 13.216 45.9449 13.864C45.7689 14.512 45.6809 15.232 45.6809 16.024C45.6809 16.824 45.7689 17.548 45.9449 18.196C46.1289 18.836 46.3969 19.384 46.7489 19.84C47.1089 20.296 47.5529 20.648 48.0809 20.896C48.6169 21.136 49.2409 21.256 49.9529 21.256ZM66.8493 22C66.6493 22 66.5333 21.896 66.5013 21.688L66.3813 19.804C65.8533 20.524 65.2333 21.096 64.5213 21.52C63.8173 21.944 63.0253 22.156 62.1453 22.156C60.6813 22.156 59.5373 21.648 58.7133 20.632C57.8973 19.616 57.4893 18.092 57.4893 16.06C57.4893 15.188 57.6013 14.376 57.8253 13.624C58.0573 12.864 58.3933 12.208 58.8333 11.656C59.2813 11.096 59.8253 10.656 60.4653 10.336C61.1133 10.016 61.8573 9.856 62.6973 9.856C63.5053 9.856 64.2053 10.008 64.7973 10.312C65.3893 10.608 65.9013 11.044 66.3333 11.62V4.54H67.4853V22H66.8493ZM62.4693 21.232C63.2613 21.232 63.9773 21.028 64.6173 20.62C65.2573 20.212 65.8293 19.644 66.3333 18.916V12.616C65.8693 11.936 65.3573 11.456 64.7973 11.176C64.2453 10.896 63.6173 10.756 62.9133 10.756C62.2093 10.756 61.5933 10.884 61.0653 11.14C60.5373 11.396 60.0933 11.76 59.7333 12.232C59.3813 12.696 59.1133 13.256 58.9293 13.912C58.7533 14.56 58.6653 15.276 58.6653 16.06C58.6653 17.836 58.9933 19.144 59.6493 19.984C60.3053 20.816 61.2453 21.232 62.4693 21.232ZM76.0389 9.868C76.8949 9.868 77.6589 10.016 78.3309 10.312C79.0109 10.6 79.5829 11.012 80.0469 11.548C80.5109 12.084 80.8629 12.732 81.1029 13.492C81.3509 14.244 81.4749 15.088 81.4749 16.024C81.4749 16.96 81.3509 17.804 81.1029 18.556C80.8629 19.308 80.5109 19.952 80.0469 20.488C79.5829 21.024 79.0109 21.436 78.3309 21.724C77.6589 22.012 76.8949 22.156 76.0389 22.156C75.1829 22.156 74.4149 22.012 73.7349 21.724C73.0629 21.436 72.4909 21.024 72.0189 20.488C71.5549 19.952 71.1989 19.308 70.9509 18.556C70.7109 17.804 70.5909 16.96 70.5909 16.024C70.5909 15.088 70.7109 14.244 70.9509 13.492C71.1989 12.732 71.5549 12.084 72.0189 11.548C72.4909 11.012 73.0629 10.6 73.7349 10.312C74.4149 10.016 75.1829 9.868 76.0389 9.868ZM76.0389 21.256C76.7509 21.256 77.3709 21.136 77.8989 20.896C78.4349 20.648 78.8789 20.296 79.2309 19.84C79.5909 19.384 79.8589 18.836 80.0349 18.196C80.2109 17.548 80.2989 16.824 80.2989 16.024C80.2989 15.232 80.2109 14.512 80.0349 13.864C79.8589 13.216 79.5909 12.664 79.2309 12.208C78.8789 11.744 78.4349 11.388 77.8989 11.14C77.3709 10.892 76.7509 10.768 76.0389 10.768C75.3269 10.768 74.7029 10.892 74.1669 11.14C73.6389 11.388 73.1949 11.744 72.8349 12.208C72.4829 12.664 72.2149 13.216 72.0309 13.864C71.8549 14.512 71.7669 15.232 71.7669 16.024C71.7669 16.824 71.8549 17.548 72.0309 18.196C72.2149 18.836 72.4829 19.384 72.8349 19.84C73.1949 20.296 73.6389 20.648 74.1669 20.896C74.7029 21.136 75.3269 21.256 76.0389 21.256ZM85.9513 10.06V22H84.8113V10.06H85.9513ZM86.4553 5.944C86.4553 6.088 86.4233 6.224 86.3593 6.352C86.3033 6.472 86.2273 6.58 86.1313 6.676C86.0353 6.772 85.9233 6.848 85.7953 6.904C85.6673 6.96 85.5313 6.988 85.3873 6.988C85.2433 6.988 85.1073 6.96 84.9793 6.904C84.8513 6.848 84.7393 6.772 84.6433 6.676C84.5473 6.58 84.4713 6.472 84.4153 6.352C84.3593 6.224 84.3313 6.088 84.3313 5.944C84.3313 5.8 84.3593 5.664 84.4153 5.536C84.4713 5.4 84.5473 5.284 84.6433 5.188C84.7393 5.092 84.8513 5.016 84.9793 4.96C85.1073 4.904 85.2433 4.876 85.3873 4.876C85.5313 4.876 85.6673 4.904 85.7953 4.96C85.9233 5.016 86.0353 5.092 86.1313 5.188C86.2273 5.284 86.3033 5.4 86.3593 5.536C86.4233 5.664 86.4553 5.8 86.4553 5.944ZM96.7466 11.536C96.6906 11.648 96.6026 11.704 96.4826 11.704C96.3946 11.704 96.2786 11.656 96.1346 11.56C95.9986 11.456 95.8146 11.344 95.5826 11.224C95.3586 11.096 95.0786 10.984 94.7426 10.888C94.4146 10.784 94.0106 10.732 93.5306 10.732C93.0986 10.732 92.7026 10.796 92.3426 10.924C91.9906 11.044 91.6866 11.208 91.4306 11.416C91.1826 11.624 90.9866 11.868 90.8426 12.148C90.7066 12.42 90.6386 12.708 90.6386 13.012C90.6386 13.388 90.7346 13.7 90.9266 13.948C91.1186 14.196 91.3706 14.408 91.6826 14.584C91.9946 14.76 92.3466 14.912 92.7386 15.04C93.1386 15.168 93.5466 15.296 93.9626 15.424C94.3786 15.552 94.7826 15.696 95.1746 15.856C95.5746 16.008 95.9306 16.2 96.2426 16.432C96.5546 16.664 96.8066 16.948 96.9986 17.284C97.1906 17.62 97.2866 18.028 97.2866 18.508C97.2866 19.028 97.1906 19.512 96.9986 19.96C96.8146 20.408 96.5426 20.796 96.1826 21.124C95.8306 21.452 95.3946 21.712 94.8746 21.904C94.3546 22.096 93.7626 22.192 93.0986 22.192C92.2586 22.192 91.5346 22.06 90.9266 21.796C90.3186 21.524 89.7746 21.172 89.2946 20.74L89.5706 20.332C89.6106 20.268 89.6546 20.22 89.7026 20.188C89.7506 20.156 89.8186 20.14 89.9066 20.14C90.0106 20.14 90.1386 20.204 90.2906 20.332C90.4426 20.46 90.6386 20.6 90.8786 20.752C91.1266 20.896 91.4306 21.032 91.7906 21.16C92.1586 21.288 92.6106 21.352 93.1466 21.352C93.6506 21.352 94.0946 21.284 94.4786 21.148C94.8626 21.004 95.1826 20.812 95.4386 20.572C95.6946 20.332 95.8866 20.052 96.0146 19.732C96.1506 19.404 96.2186 19.06 96.2186 18.7C96.2186 18.3 96.1226 17.968 95.9306 17.704C95.7386 17.44 95.4866 17.216 95.1746 17.032C94.8626 16.848 94.5066 16.692 94.1066 16.564C93.7146 16.436 93.3066 16.308 92.8826 16.18C92.4666 16.052 92.0586 15.912 91.6586 15.76C91.2666 15.608 90.9146 15.416 90.6026 15.184C90.2906 14.952 90.0386 14.672 89.8466 14.344C89.6546 14.008 89.5586 13.592 89.5586 13.096C89.5586 12.672 89.6506 12.264 89.8346 11.872C90.0186 11.48 90.2786 11.136 90.6146 10.84C90.9586 10.544 91.3746 10.308 91.8626 10.132C92.3506 9.956 92.8986 9.868 93.5066 9.868C94.2346 9.868 94.8786 9.972 95.4386 10.18C96.0066 10.388 96.5266 10.708 96.9986 11.14L96.7466 11.536ZM100.483 22V10.06H101.107C101.315 10.06 101.435 10.16 101.467 10.36L101.575 12.16C102.119 11.472 102.751 10.92 103.471 10.504C104.199 10.08 105.007 9.868 105.895 9.868C106.551 9.868 107.127 9.972 107.623 10.18C108.127 10.388 108.543 10.688 108.871 11.08C109.199 11.472 109.447 11.944 109.615 12.496C109.783 13.048 109.867 13.672 109.867 14.368V22H108.727V14.368C108.727 13.248 108.471 12.372 107.959 11.74C107.447 11.1 106.663 10.78 105.607 10.78C104.823 10.78 104.095 10.984 103.423 11.392C102.751 11.792 102.151 12.344 101.623 13.048V22H100.483ZM116.731 22.192C115.923 22.192 115.291 21.968 114.835 21.52C114.387 21.072 114.163 20.38 114.163 19.444V11.284H112.447C112.359 11.284 112.287 11.26 112.231 11.212C112.175 11.164 112.147 11.096 112.147 11.008V10.564L114.187 10.42L114.475 6.148C114.483 6.076 114.511 6.012 114.559 5.956C114.615 5.9 114.687 5.872 114.775 5.872H115.315V10.432H119.071V11.284H115.315V19.384C115.315 19.712 115.355 19.996 115.435 20.236C115.523 20.468 115.639 20.66 115.783 20.812C115.935 20.964 116.111 21.076 116.311 21.148C116.511 21.22 116.727 21.256 116.959 21.256C117.247 21.256 117.495 21.216 117.703 21.136C117.911 21.048 118.091 20.956 118.243 20.86C118.395 20.756 118.519 20.664 118.615 20.584C118.711 20.496 118.787 20.452 118.843 20.452C118.907 20.452 118.971 20.492 119.035 20.572L119.347 21.076C119.043 21.412 118.655 21.684 118.183 21.892C117.719 22.092 117.235 22.192 116.731 22.192Z" fill="#2D3748"/>
</svg>
